<svg width="33" height="35" viewBox="0 0 33 35" fill="none" xmlns="http://www.w3.org/2000/svg">
<path d="M0 3.33203C1.04167 3.16927 1.88802 3.03906 2.53906 2.94141C3.22266 2.8112 3.77604 2.71354 4.19922 2.64844C4.6875 2.55078 5.06185 2.4694 5.32227 2.4043C5.58268 2.33919 5.95703 2.24154 6.44531 2.11133C6.86849 1.98112 7.42188 1.83464 8.10547 1.67188C8.78906 1.47656 9.65169 1.21615 10.6934 0.890625C10.4329 1.21615 10.2214 1.50911 10.0586 1.76953C9.92839 1.9974 9.79818 2.19271 9.66797 2.35547C9.53776 2.55078 9.42383 2.72982 9.32617 2.89258C9.22852 3.05534 9.13086 3.29948 9.0332 3.625C8.9681 3.88542 8.88672 4.25977 8.78906 4.74805C8.69141 5.20378 8.61003 5.80599 8.54492 6.55469C10.3027 5.44792 11.9141 4.61784 13.3789 4.06445C14.8763 3.51107 16.1784 3.12044 17.2852 2.89258C18.5872 2.63216 19.7591 2.53451 20.8008 2.59961C22.1029 2.69727 23.3073 2.99023 24.4141 3.47852C25.5534 3.93424 26.5788 4.48763 27.4902 5.13867C28.4017 5.78971 29.1992 6.50586 29.8828 7.28711C30.5664 8.06836 31.1035 8.84961 31.4941 9.63086C31.7546 10.1517 31.9173 10.9004 31.9824 11.877C32.0801 12.8535 31.9824 13.8952 31.6895 15.002C31.3965 16.1087 30.8757 17.1992 30.127 18.2734C29.4108 19.3151 28.3854 20.1452 27.0508 20.7637C24.7396 21.8053 22.4447 22.3913 20.166 22.5215C19.1895 22.5866 18.1803 22.554 17.1387 22.4238C16.1296 22.2936 15.1042 22.0169 14.0625 21.5938C13.0534 21.1706 12.0768 20.5684 11.1328 19.7871C10.1888 18.9733 9.32617 17.9316 8.54492 16.6621C8.28451 18.3223 8.08919 19.7708 7.95898 21.0078C7.86133 22.2122 7.79622 23.2214 7.76367 24.0352C7.73112 24.9792 7.73112 25.7767 7.76367 26.4277C7.82878 27.0788 7.95898 27.7786 8.1543 28.5273C8.31706 29.1784 8.54492 29.9271 8.83789 30.7734C9.16341 31.6523 9.57031 32.5638 10.0586 33.5078C9.86328 33.4427 9.58659 33.3939 9.22852 33.3613C8.90299 33.3613 8.5612 33.3939 8.20312 33.459C7.8125 33.5241 7.37305 33.5892 6.88477 33.6543C6.42904 33.752 5.92448 33.8659 5.37109 33.9961C4.91536 34.0938 4.37826 34.2077 3.75977 34.3379C3.17383 34.5007 2.57161 34.6797 1.95312 34.875C2.3112 34.4518 2.58789 33.9635 2.7832 33.4102C3.01107 32.8893 3.1901 32.401 3.32031 31.9453C3.45052 31.3919 3.56445 30.8385 3.66211 30.2852C3.69466 29.7969 3.74349 28.8691 3.80859 27.502C3.90625 26.1673 3.98763 24.6211 4.05273 22.8633C4.11784 21.0729 4.16667 19.2012 4.19922 17.248C4.26432 15.2949 4.29688 13.4883 4.29688 11.8281C4.32943 10.1354 4.32943 8.70312 4.29688 7.53125C4.26432 6.35938 4.19922 5.67578 4.10156 5.48047C3.97135 5.2526 3.72721 5.00846 3.36914 4.74805C3.07617 4.52018 2.65299 4.29232 2.09961 4.06445C1.57878 3.83659 0.878906 3.59245 0 3.33203ZM11.6211 12.2188C11.3932 12.9674 11.3444 13.6999 11.4746 14.416C11.6048 15.1322 11.9303 15.7995 12.4512 16.418C13.0046 17.0365 13.7695 17.5898 14.7461 18.0781C15.7552 18.5339 17.0085 18.8757 18.5059 19.1035C20.0033 19.3314 21.1426 19.2988 21.9238 19.0059C22.7051 18.7129 23.2747 18.2572 23.6328 17.6387C24.0234 16.9876 24.2839 16.2389 24.4141 15.3926C24.5443 14.5137 24.707 13.6022 24.9023 12.6582C25.0977 11.7467 25.0651 10.819 24.8047 9.875C24.5443 8.89844 24.1699 8.01953 23.6816 7.23828C23.2259 6.45703 22.7051 5.82227 22.1191 5.33398C21.5658 4.81315 21.0775 4.55273 20.6543 4.55273C19.6452 4.55273 18.6523 4.81315 17.6758 5.33398C16.6992 5.85482 15.804 6.50586 14.9902 7.28711C14.1764 8.06836 13.4603 8.91471 12.8418 9.82617C12.2559 10.7051 11.849 11.5026 11.6211 12.2188Z" fill="black"/>
</svg>
